<?xml version="1.0" encoding="UTF-8" standalone="no"?>
<!DOCTYPE svg PUBLIC "-//W3C//DTD SVG 1.1//EN" "http://www.w3.org/Graphics/SVG/1.1/DTD/svg11.dtd">
<svg width="100%" height="100%" viewBox="0 0 60 60" version="1.1" xmlns="http://www.w3.org/2000/svg" xmlns:xlink="http://www.w3.org/1999/xlink" xml:space="preserve" xmlns:serif="http://www.serif.com/" style="fill-rule:evenodd;clip-rule:evenodd;stroke-linejoin:round;stroke-miterlimit:2;">
    <g transform="matrix(1,0,0,1,-1955.27,-721.757)">
        <g transform="matrix(0.598426,0,0,0.66114,1622.43,179.36)">
            <g id="favicon">
                <path d="M656.457,831.54L656.457,900.006C656.457,906.156 650.941,911.149 644.146,911.149L568.505,911.149C561.71,911.149 556.194,906.156 556.194,900.006L556.194,831.54C556.194,825.39 561.71,820.397 568.505,820.397L644.146,820.397C650.941,820.397 656.457,825.39 656.457,831.54Z" style="fill:white;"/>
            </g>
        </g>
        <g transform="matrix(0.42827,0,0,0.42827,1541.8,375.783)">
            <path d="M1034.67,816.578C1047.41,816.578 1056.88,819.877 1063.08,826.475C1069.28,833.073 1072.37,842.685 1072.37,855.31C1072.37,861.651 1071.59,867.406 1070.02,872.576C1068.45,877.746 1066.06,882.188 1062.86,885.901C1059.66,889.614 1055.64,892.47 1050.78,894.47C1045.92,896.469 1040.18,897.469 1033.56,897.469L1026.96,897.469L1026.96,941.856L1002.88,941.856L1002.88,816.578L1034.67,816.578ZM1032.87,837.058L1026.96,837.058L1026.96,876.904L1031.16,876.904C1034.99,876.904 1038.18,876.189 1040.75,874.761C1043.33,873.333 1045.27,871.048 1046.58,867.906C1047.89,864.764 1048.55,860.622 1048.55,855.481C1048.55,849.083 1047.25,844.413 1044.65,841.471C1042.05,838.529 1038.13,837.058 1032.87,837.058Z" style="fill-rule:nonzero;"/>
        </g>
    </g>
</svg>
