<?xml version="1.0" encoding="UTF-8" standalone="no"?>
<!DOCTYPE svg PUBLIC "-//W3C//DTD SVG 1.1//EN" "http://www.w3.org/Graphics/SVG/1.1/DTD/svg11.dtd">
<svg width="100%" height="100%" viewBox="0 0 60 60" version="1.1" xmlns="http://www.w3.org/2000/svg" xmlns:xlink="http://www.w3.org/1999/xlink" xml:space="preserve" xmlns:serif="http://www.serif.com/" style="fill-rule:evenodd;clip-rule:evenodd;stroke-linejoin:round;stroke-miterlimit:2;">
    <g transform="matrix(1,0,0,1,-427.797,-542.702)">
        <g id="favicon" transform="matrix(1,0,0,1,-863.187,-1044.09)">
            <g transform="matrix(0.598426,0,0,0.66114,958.144,1044.4)">
                <path d="M656.457,843.183L656.457,888.363C656.457,900.939 645.177,911.149 631.283,911.149L581.368,911.149C567.474,911.149 556.194,900.939 556.194,888.363L556.194,843.183C556.194,830.607 567.474,820.397 581.368,820.397L631.283,820.397C645.177,820.397 656.457,830.607 656.457,843.183Z" style="fill:white;"/>
            </g>
            <g transform="matrix(1.32239,0,0,1.32239,528.103,4.09238)">
                <path d="M599.531,1231.13C592.831,1231.13 592.031,1230.63 592.031,1225.93L581.031,1225.93C581.031,1236.88 584.881,1239.63 599.831,1239.63C614.381,1239.63 618.131,1237.43 618.131,1228.53C618.131,1220.68 614.231,1217.98 599.631,1215.13C594.331,1214.03 592.881,1213.28 592.881,1211.23C592.881,1208.28 593.631,1207.93 599.831,1207.93C606.131,1207.93 606.881,1208.48 606.881,1213.68L617.881,1213.68C617.881,1202.28 614.181,1199.43 599.831,1199.43C585.581,1199.43 581.881,1201.78 581.881,1211.13C581.881,1218.38 585.081,1220.78 597.831,1223.33C605.181,1224.78 607.131,1225.73 607.131,1227.98C607.131,1230.83 606.331,1231.13 599.531,1231.13Z" style="fill-rule:nonzero;"/>
            </g>
        </g>
    </g>
</svg>
