<?xml version="1.0" encoding="UTF-8" standalone="no"?><!DOCTYPE svg PUBLIC "-//W3C//DTD SVG 1.1//EN" "http://www.w3.org/Graphics/SVG/1.1/DTD/svg11.dtd"><svg width="100%" height="100%" viewBox="0 0 60 60" version="1.1" xmlns="http://www.w3.org/2000/svg" xmlns:xlink="http://www.w3.org/1999/xlink" xml:space="preserve" xmlns:serif="http://www.serif.com/" style="fill-rule:evenodd;clip-rule:evenodd;stroke-linejoin:round;stroke-miterlimit:2;"><g id="favicon"><path d="M60,7.367l0,45.266c0,4.066 -3.301,7.367 -7.367,7.367l-45.266,0c-4.066,0 -7.367,-3.301 -7.367,-7.367l0,-45.266c0,-4.066 3.301,-7.367 7.367,-7.367l45.266,0c4.066,0 7.367,3.301 7.367,7.367Z" style="fill:#fff;"/></g><path d="M24.102,55.693c-2.484,-0 -4.683,-0.234 -6.598,-0.701c-1.914,-0.467 -3.681,-1.328 -5.299,-2.581l2.53,-11.898c1.185,1.048 2.655,2.011 4.41,2.889c1.755,0.877 3.43,1.316 5.026,1.316c0.524,0 1.077,-0.063 1.658,-0.188c0.581,-0.125 1.123,-0.347 1.624,-0.667c0.501,-0.319 0.912,-0.78 1.231,-1.384c0.319,-0.604 0.478,-1.396 0.478,-2.376c0,-0.707 -0.102,-1.374 -0.307,-2c-0.205,-0.627 -0.599,-1.294 -1.18,-2c-0.581,-0.707 -1.419,-1.527 -2.513,-2.462c-1.436,-1.208 -2.609,-2.439 -3.521,-3.692c-0.912,-1.254 -1.578,-2.633 -2,-4.137c-0.422,-1.504 -0.633,-3.237 -0.633,-5.197c0,-2.233 0.348,-4.336 1.043,-6.308c0.695,-1.971 1.744,-3.709 3.145,-5.213c1.402,-1.505 3.18,-2.678 5.334,-3.522c2.154,-0.843 4.678,-1.265 7.573,-1.265c1.891,0 3.874,0.308 5.948,0.923c2.075,0.616 3.989,1.573 5.744,2.872l-5.197,10.496c-1.39,-1.117 -2.7,-1.977 -3.931,-2.581c-1.231,-0.604 -2.302,-0.906 -3.214,-0.906c-0.524,-0 -1.031,0.085 -1.521,0.256c-0.49,0.171 -0.935,0.428 -1.334,0.77c-0.399,0.341 -0.712,0.792 -0.94,1.35c-0.228,0.558 -0.342,1.236 -0.342,2.034c0,0.57 0.103,1.157 0.308,1.761c0.205,0.604 0.615,1.271 1.231,2c0.615,0.729 1.55,1.573 2.803,2.53c1.459,1.117 2.616,2.308 3.47,3.573c0.855,1.265 1.47,2.661 1.847,4.188c0.376,1.527 0.564,3.236 0.564,5.128c-0,2.142 -0.354,4.228 -1.06,6.256c-0.707,2.029 -1.772,3.852 -3.197,5.471c-1.424,1.618 -3.231,2.9 -5.419,3.846c-2.188,0.946 -4.775,1.419 -7.761,1.419Z" style="fill-rule:nonzero;"/></svg>