<?xml version="1.0" encoding="UTF-8" standalone="no"?>
<!DOCTYPE svg PUBLIC "-//W3C//DTD SVG 1.1//EN" "http://www.w3.org/Graphics/SVG/1.1/DTD/svg11.dtd">
<svg width="100%" height="100%" viewBox="0 0 24 24" version="1.1" xmlns="http://www.w3.org/2000/svg" xmlns:xlink="http://www.w3.org/1999/xlink" xml:space="preserve" xmlns:serif="http://www.serif.com/" style="fill-rule:evenodd;clip-rule:evenodd;stroke-linejoin:round;stroke-miterlimit:2;">
    <g transform="matrix(1,0,0,1,-1818.34,-931.863)">
        <g transform="matrix(0.4,0,0,0.4,1086.21,643.161)">
            <g transform="matrix(0.598426,0,0,0.66114,1497.5,179.36)">
                <g id="favicon">
                    <path d="M656.457,831.54L656.457,900.006C656.457,906.156 650.941,911.149 644.146,911.149L568.505,911.149C561.71,911.149 556.194,906.156 556.194,900.006L556.194,831.54C556.194,825.39 561.71,820.397 568.505,820.397L644.146,820.397C650.941,820.397 656.457,825.39 656.457,831.54Z" style="fill:white;"/>
                </g>
            </g>
            <g transform="matrix(0.422436,0,0,0.422436,1425.11,381.496)">
                <path d="M1063.29,905.181C1063.29,912.722 1061.78,919.377 1058.75,925.147C1055.72,930.917 1051.45,935.43 1045.94,938.686C1040.43,941.942 1033.93,943.57 1026.44,943.57C1022.96,943.57 1019.59,943.356 1016.33,942.928C1013.08,942.499 1009.88,941.785 1006.74,940.785C1003.59,939.786 1000.45,938.457 997.31,936.801L997.31,912.208C1001.88,915.178 1006.62,917.435 1011.53,918.977C1016.45,920.52 1020.99,921.291 1025.16,921.291C1028.24,921.291 1030.8,920.691 1032.83,919.491C1034.86,918.292 1036.37,916.664 1037.37,914.607C1038.37,912.55 1038.87,910.237 1038.87,907.666C1038.87,904.924 1038.44,902.51 1037.58,900.425C1036.73,898.34 1035.09,896.255 1032.66,894.17C1030.23,892.085 1026.67,889.671 1021.99,886.929C1018.33,884.758 1015.03,882.53 1012.09,880.245C1009.15,877.96 1006.64,875.433 1004.55,872.662C1002.47,869.891 1000.88,866.678 999.795,863.022C998.709,859.366 998.167,855.053 998.167,850.083C998.109,842.999 999.495,836.801 1002.32,831.488C1005.15,826.175 1009.24,822.048 1014.58,819.106C1019.92,816.164 1026.33,814.721 1033.81,814.778C1038.9,814.778 1043.88,815.464 1048.77,816.835C1053.65,818.206 1058.35,820.148 1062.86,822.662L1056.26,843.913C1052.21,841.457 1048.38,839.643 1044.78,838.472C1041.18,837.301 1037.81,836.715 1034.67,836.715C1031.93,836.715 1029.63,837.243 1027.77,838.3C1025.92,839.357 1024.52,840.8 1023.57,842.628C1022.63,844.456 1022.16,846.541 1022.16,848.883C1022.16,851.854 1022.62,854.367 1023.53,856.424C1024.44,858.48 1026.17,860.494 1028.71,862.465C1031.26,864.436 1034.93,866.792 1039.73,869.534C1044.92,872.562 1049.27,875.775 1052.75,879.174C1056.24,882.573 1058.86,886.372 1060.63,890.571C1062.4,894.77 1063.29,899.64 1063.29,905.181Z"/>
            </g>
        </g>
    </g>
</svg>
