<svg width="40" height="40" viewBox="0 0 40 40" fill="none" xmlns="http://www.w3.org/2000/svg">
<rect y="6" width="40" height="28" rx="4" fill="black"/>
<path fill-rule="evenodd" clip-rule="evenodd" d="M3.95524 16L2 20.0374H3.27296L3.63373 19.2289H5.73103L6.08993 20.0374H7.39093L5.43756 16H3.95524ZM4.67864 16.9396L5.31793 18.3524H4.03749L4.67864 16.9396ZM7.52585 20.0374V16L9.3348 16.006L10.3869 18.609L11.4139 16H13.2084V20.0374H12.0719V17.0625L10.8672 20.0374H9.87043L8.66235 17.0625V20.0374H7.52585ZM13.9861 16V20.0374H17.6948V19.1608H15.1346V18.4437H17.6349V17.5937H15.1346V16.9031H17.6948V16H13.9861ZM18.3527 16V20.0374H19.4893V18.603H19.9678L21.3305 20.0374H22.7193L21.2239 18.5499C21.8376 18.5039 22.4707 18.0361 22.4707 17.3098C22.4707 16.4602 21.7199 16 20.8818 16H18.3527ZM19.4893 16.9031H20.7884C21.1 16.9031 21.3267 17.1196 21.3267 17.3281C21.3267 17.5963 21.033 17.7531 20.8052 17.7531H19.4893V16.9031ZM22.9336 20.0374H24.094V16H22.9336V20.0374ZM26.8461 20.0374H26.5956C25.3837 20.0374 24.6478 19.1894 24.6478 18.0353C24.6478 16.8527 25.3754 16 26.9059 16H28.162V16.9562H26.86C26.2387 16.9562 25.7993 17.3868 25.7993 18.0453C25.7993 18.8271 26.3017 19.1555 27.0255 19.1555H27.3246L26.8461 20.0374ZM27.3637 20.0374L29.3189 16H30.8012L32.7546 20.0374H31.4536L31.0947 19.2289H28.9974L28.6366 20.0374H27.3637ZM30.6816 18.3524L30.0423 16.9396L29.4011 18.3524H30.6816ZM32.8869 20.0374V16H34.3319L36.1768 18.5366V16H37.3133V20.0374H35.9151L34.0234 17.4343V20.0374H32.8869ZM7.51821 20.9626V25H11.2268V24.1235H8.66668V23.4063H11.167V22.5563H8.66668V21.8657H11.2268V20.9626H7.51821ZM25.6897 25V20.9626H29.3983V21.8657H26.8382V22.5563H29.3266V23.4063H26.8382V24.1235H29.3983V25H25.6897ZM13.1759 23.0062L11.3702 25H12.7815L13.8246 23.7566L14.8936 25H16.3252L14.5162 22.9813L16.3406 20.9626H14.9648L13.8601 22.226L12.7591 20.9626H11.3272L13.1759 23.0062ZM16.4607 20.9626V25H17.6271V23.725H18.8234C19.8357 23.725 20.603 23.2481 20.603 22.3206C20.603 21.5522 20.0012 20.9626 18.9711 20.9626H16.4607ZM17.6271 21.8757H18.887C19.214 21.8757 19.4478 22.0537 19.4478 22.3405C19.4478 22.61 19.2152 22.8053 18.8833 22.8053H17.6271V21.8757ZM21.0956 25V20.9626H23.6247C24.4627 20.9626 25.2135 21.4228 25.2135 22.2724C25.2135 22.9987 24.5805 23.4665 23.9667 23.5125L25.4621 25H24.0733L22.7106 23.5657H22.2321V25H21.0956ZM23.5312 21.8657H22.2321V22.7157H23.548C23.7758 22.7157 24.0695 22.5589 24.0695 22.2907C24.0695 22.0822 23.8428 21.8657 23.5312 21.8657ZM29.9244 25V24.1235H32.1989C32.5355 24.1235 32.6812 23.9619 32.6812 23.7848C32.6812 23.6151 32.536 23.4435 32.1989 23.4435H31.1711C30.2777 23.4435 29.7801 22.9601 29.7801 22.2343C29.7801 21.5869 30.2358 20.9626 31.5634 20.9626H33.7766L33.2981 21.871H31.384C31.0181 21.871 30.9054 22.0415 30.9054 22.2044C30.9054 22.3718 31.0446 22.5563 31.3241 22.5563H32.4008C33.3968 22.5563 33.8289 23.058 33.8289 23.7151C33.8289 24.4214 33.3474 25 32.3466 25H29.9244ZM34.0955 24.1235V25H36.5177C37.5184 25 38 24.4214 38 23.7151C38 23.058 37.5678 22.5563 36.5719 22.5563H35.4952C35.2157 22.5563 35.0765 22.3718 35.0765 22.2044C35.0765 22.0415 35.1891 21.871 35.555 21.871H37.4691L37.9477 20.9626H35.7345C34.4068 20.9626 33.9512 21.5869 33.9512 22.2343C33.9512 22.9601 34.4488 23.4435 35.3422 23.4435H36.37C36.707 23.4435 36.8523 23.6151 36.8523 23.7848C36.8523 23.9619 36.7066 24.1235 36.37 24.1235H34.0955Z" fill="white"/>
</svg>