<?xml version="1.0" encoding="UTF-8" standalone="no"?>
<!DOCTYPE svg PUBLIC "-//W3C//DTD SVG 1.1//EN" "http://www.w3.org/Graphics/SVG/1.1/DTD/svg11.dtd">
<svg width="100%" height="100%" viewBox="0 0 117 24" version="1.1" xmlns="http://www.w3.org/2000/svg" xmlns:xlink="http://www.w3.org/1999/xlink" xml:space="preserve" xmlns:serif="http://www.serif.com/" style="fill-rule:evenodd;clip-rule:evenodd;stroke-linejoin:round;stroke-miterlimit:2;">
    <g transform="matrix(1,0,0,1,-1900.99,-277.052)">
        <g transform="matrix(0.186345,0,0,0.186345,1714.11,125.223)">
            <path d="M1034.67,816.578C1047.41,816.578 1056.88,819.877 1063.08,826.475C1069.28,833.073 1072.37,842.685 1072.37,855.31C1072.37,861.651 1071.59,867.406 1070.02,872.576C1068.45,877.746 1066.06,882.188 1062.86,885.901C1059.66,889.614 1055.64,892.47 1050.78,894.47C1045.92,896.469 1040.18,897.469 1033.56,897.469L1026.96,897.469L1026.96,941.856L1002.88,941.856L1002.88,816.578L1034.67,816.578ZM1032.87,837.058L1026.96,837.058L1026.96,876.904L1031.16,876.904C1034.99,876.904 1038.18,876.189 1040.75,874.761C1043.33,873.333 1045.27,871.048 1046.58,867.906C1047.89,864.764 1048.55,860.622 1048.55,855.481C1048.55,849.083 1047.25,844.413 1044.65,841.471C1042.05,838.529 1038.13,837.058 1032.87,837.058Z" style="fill-rule:nonzero;"/>
            <path d="M1120.85,816.578C1130.11,816.578 1137.79,817.92 1143.9,820.605C1150.02,823.29 1154.57,827.318 1157.57,832.688C1160.57,838.057 1162.07,844.798 1162.07,852.91C1162.07,858.052 1161.44,862.722 1160.19,866.921C1158.93,871.119 1156.97,874.861 1154.32,878.146C1151.66,881.431 1148.28,884.301 1144.16,886.758L1169.95,941.856L1143.48,941.856L1123,892.756L1115.8,892.756L1115.8,941.856L1091.72,941.856L1091.72,816.578L1120.85,816.578ZM1120.68,836.886L1115.8,836.886L1115.8,873.733L1121.2,873.733C1126.57,873.733 1130.64,872.105 1133.41,868.849C1136.18,865.592 1137.56,860.68 1137.56,854.11C1137.56,848.226 1136.18,843.884 1133.41,841.085C1130.64,838.286 1126.4,836.886 1120.68,836.886Z" style="fill-rule:nonzero;"/>
            <path d="M1240.71,941.856L1184.42,941.856L1184.42,816.578L1240.71,816.578L1240.71,837.058L1208.5,837.058L1208.5,866.535L1238.49,866.535L1238.49,887.101L1208.5,887.101L1208.5,920.948L1240.71,920.948L1240.71,941.856Z" style="fill-rule:nonzero;"/>
            <path d="M1324.28,905.181C1324.28,912.722 1322.77,919.377 1319.74,925.147C1316.71,930.917 1312.44,935.43 1306.93,938.686C1301.42,941.942 1294.92,943.57 1287.44,943.57C1283.95,943.57 1280.58,943.356 1277.33,942.928C1274.07,942.499 1270.87,941.785 1267.73,940.785C1264.59,939.786 1261.44,938.457 1258.3,936.801L1258.3,912.208C1262.87,915.178 1267.61,917.435 1272.53,918.977C1277.44,920.52 1281.98,921.291 1286.15,921.291C1289.24,921.291 1291.79,920.691 1293.82,919.491C1295.85,918.292 1297.36,916.664 1298.36,914.607C1299.36,912.55 1299.86,910.237 1299.86,907.666C1299.86,904.924 1299.43,902.51 1298.58,900.425C1297.72,898.34 1296.08,896.255 1293.65,894.17C1291.22,892.085 1287.66,889.671 1282.98,886.929C1279.33,884.758 1276.03,882.53 1273.08,880.245C1270.14,877.96 1267.63,875.433 1265.54,872.662C1263.46,869.891 1261.87,866.678 1260.79,863.022C1259.7,859.366 1259.16,855.053 1259.16,850.083C1259.1,842.999 1260.49,836.801 1263.32,831.488C1266.14,826.175 1270.23,822.048 1275.57,819.106C1280.91,816.164 1287.32,814.721 1294.81,814.778C1299.89,814.778 1304.88,815.464 1309.76,816.835C1314.64,818.206 1319.34,820.148 1323.86,822.662L1317.26,843.913C1313.2,841.457 1309.37,839.643 1305.77,838.472C1302.17,837.301 1298.81,836.715 1295.66,836.715C1292.92,836.715 1290.62,837.243 1288.77,838.3C1286.91,839.357 1285.51,840.8 1284.57,842.628C1283.62,844.456 1283.15,846.541 1283.15,848.883C1283.15,851.854 1283.61,854.367 1284.52,856.424C1285.44,858.48 1287.16,860.494 1289.71,862.465C1292.25,864.436 1295.92,866.792 1300.72,869.534C1305.92,872.562 1310.26,875.775 1313.74,879.174C1317.23,882.573 1319.86,886.372 1321.63,890.571C1323.4,894.77 1324.28,899.64 1324.28,905.181Z" style="fill-rule:nonzero;"/>
            <path d="M1385.36,941.856L1361.62,941.856L1361.62,837.401L1338.31,837.401L1338.31,816.578L1408.49,816.578L1408.49,837.401L1385.36,837.401L1385.36,941.856Z" style="fill-rule:nonzero;"/>
            <rect x="1426.94" y="816.578" width="24.079" height="125.278" style="fill-rule:nonzero;"/>
            <path d="M1512.4,871.334L1551.56,871.334L1551.56,936.629C1545.62,938.971 1539.52,940.714 1533.26,941.856C1527.01,942.999 1520.65,943.57 1514.2,943.57C1503.86,943.57 1495.22,940.928 1488.28,935.644C1481.34,930.36 1476.11,922.89 1472.6,913.236C1469.08,903.582 1467.33,892.128 1467.33,878.874C1467.33,865.792 1469.31,854.467 1473.28,844.898C1477.25,835.33 1483.06,827.918 1490.72,822.662C1498.37,817.406 1507.71,814.778 1518.74,814.778C1524.8,814.778 1530.45,815.507 1535.71,816.963C1540.96,818.42 1545.67,820.32 1549.85,822.662L1542.82,842.542C1539.22,840.257 1535.49,838.514 1531.64,837.315C1527.78,836.115 1523.77,835.515 1519.6,835.515C1513.6,835.515 1508.57,837.215 1504.52,840.614C1500.46,844.013 1497.4,848.983 1495.35,855.524C1493.29,862.065 1492.26,870.077 1492.26,879.56C1492.26,888.3 1493.1,895.912 1494.79,902.396C1496.48,908.88 1499.05,913.893 1502.5,917.435C1505.96,920.977 1510.37,922.748 1515.74,922.748C1517.97,922.748 1520.12,922.576 1522.21,922.233C1524.3,921.891 1526.25,921.405 1528.08,920.777L1528.08,891.642L1512.4,891.642L1512.4,871.334Z" style="fill-rule:nonzero;"/>
            <path d="M1627.38,941.856L1571.08,941.856L1571.08,816.578L1627.38,816.578L1627.38,837.058L1595.16,837.058L1595.16,866.535L1625.15,866.535L1625.15,887.101L1595.16,887.101L1595.16,920.948L1627.38,920.948L1627.38,941.856Z" style="fill-rule:nonzero;"/>
        </g>
    </g>
</svg>
