<?xml version="1.0" encoding="UTF-8" standalone="no"?>
<!DOCTYPE svg PUBLIC "-//W3C//DTD SVG 1.1//EN" "http://www.w3.org/Graphics/SVG/1.1/DTD/svg11.dtd">
<svg width="100%" height="100%" viewBox="0 0 100 23" version="1.1" xmlns="http://www.w3.org/2000/svg" xmlns:xlink="http://www.w3.org/1999/xlink" xml:space="preserve" xmlns:serif="http://www.serif.com/" style="fill-rule:evenodd;clip-rule:evenodd;stroke-linejoin:round;stroke-miterlimit:2;">
    <g transform="matrix(1,0,0,1,-2000.21,-255.766)">
        <rect id="Artboard1" x="0" y="0" width="2480.32" height="3507.87" style="fill:none;"/>
        <g id="Artboard11" serif:id="Artboard1">
            <g id="favicon">
            </g>
            <g id="favicon1" serif:id="favicon">
            </g>
            <g id="SHOE-STORE-V2" serif:id="SHOE STORE V2">
            </g>
            <g transform="matrix(0.173804,0,0,0.173804,1825.91,114.155)">
                <path d="M1034.67,816.578C1047.41,816.578 1056.88,819.877 1063.08,826.475C1069.28,833.073 1072.37,842.685 1072.37,855.31C1072.37,861.651 1071.59,867.406 1070.02,872.576C1068.45,877.746 1066.06,882.188 1062.86,885.901C1059.66,889.614 1055.64,892.47 1050.78,894.47C1045.92,896.469 1040.18,897.469 1033.56,897.469L1026.96,897.469L1026.96,941.856L1002.88,941.856L1002.88,816.578L1034.67,816.578ZM1032.87,837.058L1026.96,837.058L1026.96,876.904L1031.16,876.904C1034.99,876.904 1038.18,876.189 1040.75,874.761C1043.33,873.333 1045.27,871.048 1046.58,867.906C1047.89,864.764 1048.55,860.622 1048.55,855.481C1048.55,849.083 1047.25,844.413 1044.65,841.471C1042.05,838.529 1038.13,837.058 1032.87,837.058Z" style="fill-rule:nonzero;"/>
                <path d="M1112.08,816.578C1121.33,816.578 1129.02,817.92 1135.13,820.605C1141.24,823.29 1145.8,827.318 1148.8,832.688C1151.8,838.057 1153.3,844.798 1153.3,852.91C1153.3,858.052 1152.67,862.722 1151.41,866.921C1150.15,871.119 1148.2,874.861 1145.54,878.146C1142.88,881.431 1139.5,884.301 1135.39,886.758L1161.18,941.856L1134.7,941.856L1114.22,892.756L1107.02,892.756L1107.02,941.856L1082.94,941.856L1082.94,816.578L1112.08,816.578ZM1111.91,836.886L1107.02,836.886L1107.02,873.733L1112.42,873.733C1117.79,873.733 1121.86,872.105 1124.63,868.849C1127.4,865.592 1128.79,860.68 1128.79,854.11C1128.79,848.226 1127.4,843.884 1124.63,841.085C1121.86,838.286 1117.62,836.886 1111.91,836.886Z" style="fill-rule:nonzero;"/>
                <path d="M1224.92,941.856L1168.62,941.856L1168.62,816.578L1224.92,816.578L1224.92,837.058L1192.7,837.058L1192.7,866.535L1222.69,866.535L1222.69,887.101L1192.7,887.101L1192.7,920.948L1224.92,920.948L1224.92,941.856Z" style="fill-rule:nonzero;"/>
                <path d="M1299.71,905.181C1299.71,912.722 1298.2,919.377 1295.17,925.147C1292.14,930.917 1287.88,935.43 1282.36,938.686C1276.85,941.942 1270.35,943.57 1262.87,943.57C1259.38,943.57 1256.01,943.356 1252.76,942.928C1249.5,942.499 1246.3,941.785 1243.16,940.785C1240.02,939.786 1236.88,938.457 1233.73,936.801L1233.73,912.208C1238.3,915.178 1243.05,917.435 1247.96,918.977C1252.87,920.52 1257.41,921.291 1261.58,921.291C1264.67,921.291 1267.22,920.691 1269.25,919.491C1271.28,918.292 1272.79,916.664 1273.79,914.607C1274.79,912.55 1275.29,910.237 1275.29,907.666C1275.29,904.924 1274.86,902.51 1274.01,900.425C1273.15,898.34 1271.51,896.255 1269.08,894.17C1266.65,892.085 1263.1,889.671 1258.41,886.929C1254.76,884.758 1251.46,882.53 1248.52,880.245C1245.57,877.96 1243.06,875.433 1240.97,872.662C1238.89,869.891 1237.3,866.678 1236.22,863.022C1235.13,859.366 1234.59,855.053 1234.59,850.083C1234.53,842.999 1235.92,836.801 1238.75,831.488C1241.57,826.175 1245.66,822.048 1251,819.106C1256.34,816.164 1262.75,814.721 1270.24,814.778C1275.32,814.778 1280.31,815.464 1285.19,816.835C1290.07,818.206 1294.77,820.148 1299.29,822.662L1292.69,843.913C1288.63,841.457 1284.8,839.643 1281.2,838.472C1277.61,837.301 1274.24,836.715 1271.09,836.715C1268.35,836.715 1266.05,837.243 1264.2,838.3C1262.34,839.357 1260.94,840.8 1260,842.628C1259.06,844.456 1258.58,846.541 1258.58,848.883C1258.58,851.854 1259.04,854.367 1259.95,856.424C1260.87,858.48 1262.6,860.494 1265.14,862.465C1267.68,864.436 1271.35,866.792 1276.15,869.534C1281.35,872.562 1285.69,875.775 1289.17,879.174C1292.66,882.573 1295.29,886.372 1297.06,890.571C1298.83,894.77 1299.71,899.64 1299.71,905.181Z" style="fill-rule:nonzero;"/>
                <path d="M1353.77,941.856L1330.03,941.856L1330.03,837.401L1306.73,837.401L1306.73,816.578L1376.9,816.578L1376.9,837.401L1353.77,837.401L1353.77,941.856Z" style="fill-rule:nonzero;"/>
                <rect x="1386.57" y="816.578" width="24.079" height="125.278" style="fill-rule:nonzero;"/>
                <path d="M1468.53,871.334L1507.69,871.334L1507.69,936.629C1501.74,938.971 1495.65,940.714 1489.39,941.856C1483.14,942.999 1476.78,943.57 1470.33,943.57C1459.99,943.57 1451.35,940.928 1444.4,935.644C1437.46,930.36 1432.24,922.89 1428.72,913.236C1425.21,903.582 1423.45,892.128 1423.45,878.874C1423.45,865.792 1425.44,854.467 1429.41,844.898C1433.38,835.33 1439.19,827.918 1446.85,822.662C1454.5,817.406 1463.84,814.778 1474.87,814.778C1480.92,814.778 1486.58,815.507 1491.83,816.963C1497.09,818.42 1501.8,820.32 1505.97,822.662L1498.94,842.542C1495.35,840.257 1491.62,838.514 1487.76,837.315C1483.91,836.115 1479.89,835.515 1475.72,835.515C1469.73,835.515 1464.7,837.215 1460.64,840.614C1456.59,844.013 1453.53,848.983 1451.47,855.524C1449.42,862.065 1448.39,870.077 1448.39,879.56C1448.39,888.3 1449.23,895.912 1450.92,902.396C1452.6,908.88 1455.17,913.893 1458.63,917.435C1462.08,920.977 1466.5,922.748 1471.87,922.748C1474.1,922.748 1476.25,922.576 1478.34,922.233C1480.42,921.891 1482.38,921.405 1484.21,920.777L1484.21,891.642L1468.53,891.642L1468.53,871.334Z" style="fill-rule:nonzero;"/>
                <path d="M1578.24,941.856L1521.94,941.856L1521.94,816.578L1578.24,816.578L1578.24,837.058L1546.02,837.058L1546.02,866.535L1576.01,866.535L1576.01,887.101L1546.02,887.101L1546.02,920.948L1578.24,920.948L1578.24,941.856Z" style="fill-rule:nonzero;"/>
            </g>
            <g id="SHOE-STORE-V21" serif:id="SHOE STORE V2">
            </g>
            <g id="SHOE-STORE-V22" serif:id="SHOE STORE V2">
            </g>
            <g id="shoe-store-logo" serif:id="shoe store logo">
            </g>
            <g id="shoe-store-logo1" serif:id="shoe store logo">
            </g>
            <g id="R">
            </g>
            <g id="secure">
            </g>
        </g>
    </g>
</svg>
