<?xml version="1.0" encoding="UTF-8" standalone="no"?>
<!DOCTYPE svg PUBLIC "-//W3C//DTD SVG 1.1//EN" "http://www.w3.org/Graphics/SVG/1.1/DTD/svg11.dtd">
<svg width="100%" height="100%" viewBox="0 0 145 24" version="1.1" xmlns="http://www.w3.org/2000/svg" xmlns:xlink="http://www.w3.org/1999/xlink" xml:space="preserve" xmlns:serif="http://www.serif.com/" style="fill-rule:evenodd;clip-rule:evenodd;stroke-linejoin:round;stroke-miterlimit:2;">
    <g transform="matrix(1,0,0,1,-1890.34,-395.174)">
        <g id="SHOE-STORE-V2" serif:id="SHOE STORE V2" transform="matrix(0.412631,0,0,0.412631,1086.51,168.337)">
            <g transform="matrix(0.447666,0,0,0.447666,1501.59,185.491)">
                <g transform="matrix(175.493,0,0,175.493,1747.81,941.856)">
                </g>
                <text x="991.654px" y="941.856px" style="font-family:'OpenSansCondensed-Bold', 'Open Sans Condensed';font-weight:700;font-stretch:condensed;font-size:175.493px;">S<tspan x="1062.55px 1158.21px 1256.27px 1325.2px 1350.68px 1421.58px 1490.93px 1588.99px 1672.91px " y="941.856px 941.856px 941.856px 941.856px 941.856px 941.856px 941.856px 941.856px 941.856px ">HOE STORE</tspan></text>
            </g>
            <g>
                <g transform="matrix(0.0615935,0,0,0.0615935,2212.95,539.102)">
                    <g id="R">
                        <path d="M1275.92,217.239C1286.2,217.239 1294.7,218.51 1301.41,221.052C1308.13,223.594 1313.14,227.465 1316.45,232.663C1319.77,237.862 1321.42,244.488 1321.42,252.543C1321.42,259.17 1320.22,264.697 1317.83,269.124C1315.43,273.551 1312.28,277.136 1308.4,279.878C1304.52,282.62 1300.37,284.734 1295.97,286.219L1330.34,342.517L1313.37,342.517L1282.69,290.247L1256.64,290.247L1256.64,342.517L1242.08,342.517L1242.08,217.239L1275.92,217.239ZM1275.07,229.835L1256.64,229.835L1256.64,277.907L1276.52,277.907C1286.75,277.907 1294.28,275.822 1299.1,271.652C1303.93,267.482 1306.34,261.341 1306.34,253.229C1306.34,244.717 1303.79,238.69 1298.67,235.148C1293.56,231.606 1285.69,229.835 1275.07,229.835Z" style="fill-rule:nonzero;"/>
                    </g>
                </g>
                <g transform="matrix(0.70053,0,0,0.70053,682.555,167.872)">
                    <path d="M2297.22,545.102C2302.42,545.102 2306.64,549.324 2306.64,554.525C2306.64,559.726 2302.42,563.948 2297.22,563.948C2292.02,563.948 2287.79,559.726 2287.79,554.525C2287.79,549.324 2292.02,545.102 2297.22,545.102ZM2297.22,546.391C2301.71,546.391 2305.35,550.036 2305.35,554.525C2305.35,559.015 2301.71,562.659 2297.22,562.659C2292.73,562.659 2289.08,559.015 2289.08,554.525C2289.08,550.036 2292.73,546.391 2297.22,546.391Z"/>
                </g>
            </g>
        </g>
    </g>
</svg>
