<?xml version="1.0" encoding="UTF-8" standalone="no"?>
<!DOCTYPE svg PUBLIC "-//W3C//DTD SVG 1.1//EN" "http://www.w3.org/Graphics/SVG/1.1/DTD/svg11.dtd">
<svg width="100%" height="100%" viewBox="0 0 411 57" version="1.1" xmlns="http://www.w3.org/2000/svg" xmlns:xlink="http://www.w3.org/1999/xlink" xml:space="preserve" xmlns:serif="http://www.serif.com/" style="fill-rule:evenodd;clip-rule:evenodd;stroke-linejoin:round;stroke-miterlimit:2;">
    <g transform="matrix(1,0,0,1,-721.969,-388.58)">
        <g>
            <g transform="matrix(1.36774,0,0,1.36774,-72.7315,-1250.97)">
                <path d="M599.531,1231.13C592.831,1231.13 592.031,1230.63 592.031,1225.93L581.031,1225.93C581.031,1236.88 584.881,1239.63 599.831,1239.63C614.381,1239.63 618.131,1237.43 618.131,1228.53C618.131,1220.68 614.231,1217.98 599.631,1215.13C594.331,1214.03 592.881,1213.28 592.881,1211.23C592.881,1208.28 593.631,1207.93 599.831,1207.93C606.131,1207.93 606.881,1208.48 606.881,1213.68L617.881,1213.68C617.881,1202.28 614.181,1199.43 599.831,1199.43C585.581,1199.43 581.881,1201.78 581.881,1211.13C581.881,1218.38 585.081,1220.78 597.831,1223.33C605.181,1224.78 607.131,1225.73 607.131,1227.98C607.131,1230.83 606.331,1231.13 599.531,1231.13Z" style="fill-rule:nonzero;"/>
                <path d="M622.131,1199.03L622.131,1239.03L631.631,1239.03L631.631,1222.38C631.631,1218.23 633.231,1216.43 636.931,1216.43C640.681,1216.43 641.081,1216.98 641.081,1221.88L641.081,1239.03L650.581,1239.03L650.531,1219.63C650.531,1210.68 648.481,1208.43 640.681,1208.43C635.481,1208.43 632.581,1210.08 631.631,1213.78L631.631,1199.03L622.131,1199.03Z" style="fill-rule:nonzero;"/>
                <path d="M669.781,1215.93C674.931,1215.93 675.481,1216.73 675.481,1224.03C675.481,1231.33 674.931,1232.13 669.781,1232.13C664.631,1232.13 664.081,1231.33 664.081,1224.03C664.081,1216.73 664.631,1215.93 669.781,1215.93ZM654.081,1224.03C654.081,1236.53 657.231,1239.63 669.781,1239.63C682.331,1239.63 685.481,1236.53 685.481,1224.03C685.481,1211.53 682.331,1208.43 669.781,1208.43C657.231,1208.43 654.081,1211.53 654.081,1224.03Z" style="fill-rule:nonzero;"/>
                <path d="M718.731,1229.48L708.731,1229.48C708.731,1231.98 707.731,1232.63 703.781,1232.63C699.681,1232.63 698.731,1231.98 698.531,1226.73L718.981,1226.73L718.981,1222.08C718.731,1211.18 715.581,1208.43 703.731,1208.43C691.531,1208.43 688.481,1211.53 688.481,1224.03C688.481,1236.53 691.531,1239.63 703.731,1239.63C715.531,1239.63 718.531,1237.58 718.731,1229.48ZM698.581,1219.73C698.931,1215.93 700.081,1215.43 703.781,1215.43C708.181,1215.43 708.881,1215.88 708.981,1219.73L698.581,1219.73Z" style="fill-rule:nonzero;"/>
                <path d="M740.481,1231.13C733.781,1231.13 732.981,1230.63 732.981,1225.93L721.981,1225.93C721.981,1236.88 725.831,1239.63 740.781,1239.63C755.331,1239.63 759.081,1237.43 759.081,1228.53C759.081,1220.68 755.181,1217.98 740.581,1215.13C735.281,1214.03 733.831,1213.28 733.831,1211.23C733.831,1208.28 734.581,1207.93 740.781,1207.93C747.081,1207.93 747.831,1208.48 747.831,1213.68L758.831,1213.68C758.831,1202.28 755.131,1199.43 740.781,1199.43C726.531,1199.43 722.831,1201.78 722.831,1211.13C722.831,1218.38 726.031,1220.78 738.781,1223.33C746.131,1224.78 748.081,1225.73 748.081,1227.98C748.081,1230.83 747.281,1231.13 740.481,1231.13Z" style="fill:none;fill-rule:nonzero;stroke:black;stroke-width:0.73px;"/>
                <path d="M783.581,1230.53L778.531,1230.53C775.431,1230.53 775.081,1230.13 775.081,1226.48L775.081,1217.03L783.081,1217.03L783.081,1209.03L775.081,1209.03L775.081,1202.63L766.081,1202.63L766.081,1209.03L762.581,1209.03L762.581,1217.03L765.581,1217.03L765.581,1228.93C765.581,1237.03 767.981,1239.03 777.581,1239.03L783.581,1239.03L783.581,1230.53Z" style="fill:none;fill-rule:nonzero;stroke:black;stroke-width:0.73px;"/>
                <path d="M802.281,1215.93C807.431,1215.93 807.981,1216.73 807.981,1224.03C807.981,1231.33 807.431,1232.13 802.281,1232.13C797.131,1232.13 796.581,1231.33 796.581,1224.03C796.581,1216.73 797.131,1215.93 802.281,1215.93ZM786.581,1224.03C786.581,1236.53 789.731,1239.63 802.281,1239.63C814.831,1239.63 817.981,1236.53 817.981,1224.03C817.981,1211.53 814.831,1208.43 802.281,1208.43C789.731,1208.43 786.581,1211.53 786.581,1224.03Z" style="fill:none;fill-rule:nonzero;stroke:black;stroke-width:0.73px;"/>
                <path d="M821.981,1209.03L821.981,1239.03L831.481,1239.03L831.481,1222.18C831.481,1218.83 833.031,1217.38 836.731,1217.43L843.481,1217.53L843.481,1209.03L840.031,1209.03C835.031,1209.03 832.331,1210.73 831.481,1214.58L831.481,1209.03L821.981,1209.03Z" style="fill:none;fill-rule:nonzero;stroke:black;stroke-width:0.73px;"/>
                <path d="M876.231,1229.48L866.231,1229.48C866.231,1231.98 865.231,1232.63 861.281,1232.63C857.181,1232.63 856.231,1231.98 856.031,1226.73L876.481,1226.73L876.481,1222.08C876.231,1211.18 873.081,1208.43 861.231,1208.43C849.031,1208.43 845.981,1211.53 845.981,1224.03C845.981,1236.53 849.031,1239.63 861.231,1239.63C873.031,1239.63 876.031,1237.58 876.231,1229.48ZM856.081,1219.73C856.431,1215.93 857.581,1215.43 861.281,1215.43C865.681,1215.43 866.381,1215.88 866.481,1219.73L856.081,1219.73Z" style="fill:none;fill-rule:nonzero;stroke:black;stroke-width:0.73px;"/>
            </g>
            <g id="R" transform="matrix(1,0,0,1,-15.5164,-2.27374e-13)">
                <g transform="matrix(0.0615935,0,0,0.0615935,1062.72,377.935)">
                    <path d="M1275.92,217.239C1286.2,217.239 1294.7,218.51 1301.41,221.052C1308.13,223.594 1313.14,227.465 1316.45,232.663C1319.77,237.862 1321.42,244.488 1321.42,252.543C1321.42,259.17 1320.22,264.697 1317.83,269.124C1315.43,273.551 1312.28,277.136 1308.4,279.878C1304.52,282.62 1300.37,284.734 1295.97,286.219L1330.34,342.517L1313.37,342.517L1282.69,290.247L1256.64,290.247L1256.64,342.517L1242.08,342.517L1242.08,217.239L1275.92,217.239ZM1275.07,229.835L1256.64,229.835L1256.64,277.907L1276.52,277.907C1286.75,277.907 1294.28,275.822 1299.1,271.652C1303.93,267.482 1306.34,261.341 1306.34,253.229C1306.34,244.717 1303.79,238.69 1298.67,235.148C1293.56,231.606 1285.69,229.835 1275.07,229.835Z" style="fill-rule:nonzero;"/>
                </g>
                <g transform="matrix(0.317102,0,0,0.317102,778.328,274.905)">
                    <circle cx="1145.55" cy="379.275" r="19.481" style="fill:none;stroke:black;stroke-width:2.63px;stroke-linecap:round;stroke-miterlimit:1.5;"/>
                </g>
            </g>
        </g>
    </g>
</svg>
