<?xml version="1.0" encoding="UTF-8" standalone="no"?><!DOCTYPE svg PUBLIC "-//W3C//DTD SVG 1.1//EN" "http://www.w3.org/Graphics/SVG/1.1/DTD/svg11.dtd"><svg width="100%" height="100%" viewBox="0 0 355 58" version="1.1" xmlns="http://www.w3.org/2000/svg" xmlns:xlink="http://www.w3.org/1999/xlink" xml:space="preserve" xmlns:serif="http://www.serif.com/" style="fill-rule:evenodd;clip-rule:evenodd;stroke-linecap:round;stroke-linejoin:round;stroke-miterlimit:1.5;"><g id="shoe-store-logo" serif:id="shoe store logo"><g><path d="M13.349,57.732c-2.787,0 -5.255,-0.262 -7.403,-0.786c-2.148,-0.524 -4.13,-1.49 -5.946,-2.896l2.839,-13.35c1.329,1.177 2.979,2.257 4.948,3.242c1.969,0.984 3.849,1.477 5.639,1.477c0.588,-0 1.208,-0.071 1.861,-0.211c0.652,-0.141 1.259,-0.39 1.822,-0.748c0.562,-0.358 1.023,-0.876 1.381,-1.554c0.358,-0.678 0.537,-1.566 0.537,-2.666c-0,-0.793 -0.115,-1.541 -0.345,-2.244c-0.231,-0.703 -0.672,-1.451 -1.324,-2.244c-0.652,-0.793 -1.592,-1.714 -2.819,-2.762c-1.612,-1.355 -2.929,-2.736 -3.952,-4.143c-1.022,-1.407 -1.771,-2.954 -2.244,-4.642c-0.473,-1.687 -0.709,-3.631 -0.709,-5.83c-0,-2.507 0.39,-4.866 1.17,-7.078c0.78,-2.212 1.956,-4.162 3.529,-5.85c1.573,-1.688 3.567,-3.005 5.984,-3.951c2.417,-0.946 5.249,-1.419 8.497,-1.419c2.123,-0 4.347,0.345 6.675,1.035c2.327,0.691 4.475,1.765 6.444,3.223l-5.831,11.776c-1.56,-1.253 -3.03,-2.218 -4.411,-2.896c-1.381,-0.678 -2.583,-1.016 -3.606,-1.016c-0.588,-0 -1.157,0.096 -1.707,0.287c-0.55,0.192 -1.048,0.48 -1.496,0.863c-0.448,0.384 -0.799,0.889 -1.055,1.516c-0.256,0.626 -0.384,1.387 -0.384,2.282c0,0.639 0.116,1.298 0.346,1.976c0.23,0.677 0.69,1.425 1.381,2.244c0.69,0.818 1.739,1.764 3.145,2.838c1.637,1.254 2.935,2.59 3.894,4.009c0.959,1.419 1.649,2.986 2.071,4.699c0.422,1.714 0.633,3.632 0.633,5.754c0,2.404 -0.396,4.744 -1.189,7.02c-0.793,2.276 -1.988,4.322 -3.587,6.138c-1.598,1.816 -3.625,3.254 -6.08,4.315c-2.455,1.062 -5.357,1.592 -8.708,1.592Z" style="fill:#fff;fill-rule:nonzero;"/><path d="M32.544,56.965l11.853,-56.083l13.119,0l-4.488,21.214l9.667,-0l4.565,-21.214l13.119,0l-11.93,56.083l-13.119,0l4.948,-23.4l-9.667,0l-4.948,23.4l-13.119,0Z" style="fill:#fff;fill-rule:nonzero;"/><path d="M92.804,57.732c-3.709,0 -6.771,-0.671 -9.188,-2.014c-2.416,-1.342 -4.213,-3.414 -5.389,-6.214c-1.177,-2.8 -1.765,-6.387 -1.765,-10.76c0,-2.941 0.256,-5.933 0.767,-8.976c0.512,-3.044 1.273,-6.017 2.283,-8.919c1.01,-2.903 2.257,-5.607 3.74,-8.113c1.483,-2.507 3.197,-4.719 5.14,-6.637c1.944,-1.918 4.111,-3.414 6.502,-4.488c2.391,-1.074 4.994,-1.611 7.807,-1.611c5.651,-0 9.75,1.605 12.294,4.814c2.545,3.21 3.817,7.922 3.817,14.136c-0,2.506 -0.211,5.198 -0.633,8.075c-0.422,2.877 -1.08,5.767 -1.976,8.669c-0.895,2.903 -2.033,5.671 -3.414,8.305c-1.381,2.634 -3.036,4.981 -4.967,7.04c-1.931,2.058 -4.143,3.689 -6.637,4.89c-2.493,1.202 -5.287,1.803 -8.381,1.803Zm0.92,-11.7c1.202,0 2.321,-0.46 3.357,-1.38c1.036,-0.921 1.975,-2.155 2.819,-3.702c0.844,-1.547 1.592,-3.293 2.244,-5.236c0.653,-1.944 1.196,-3.945 1.631,-6.004c0.434,-2.059 0.767,-4.053 0.997,-5.984c0.23,-1.931 0.345,-3.651 0.345,-5.16c0,-2.403 -0.307,-4.187 -0.92,-5.351c-0.614,-1.163 -1.484,-1.745 -2.609,-1.745c-1.202,-0 -2.314,0.454 -3.337,1.362c-1.023,0.907 -1.963,2.135 -2.82,3.682c-0.856,1.547 -1.604,3.28 -2.244,5.198c-0.639,1.918 -1.183,3.906 -1.63,5.965c-0.448,2.059 -0.786,4.047 -1.017,5.965c-0.23,1.918 -0.345,3.644 -0.345,5.179c0,1.969 0.134,3.471 0.403,4.507c0.268,1.036 0.671,1.745 1.208,2.129c0.537,0.384 1.177,0.575 1.918,0.575Z" style="fill:#fff;fill-rule:nonzero;"/><path d="M114.972,56.965l11.853,-56.083l25.471,0l-2.378,11.317l-12.314,-0l-2.225,10.127l11.47,-0l-2.417,11.316l-11.393,0l-2.608,11.853l12.429,0l-2.455,11.47l-25.433,0Z" style="fill:#fff;fill-rule:nonzero;"/><path d="M168.359,57.732c-2.787,0 -5.255,-0.262 -7.403,-0.786c-2.149,-0.524 -4.13,-1.49 -5.946,-2.896l2.838,-13.35c1.33,1.177 2.98,2.257 4.949,3.242c1.969,0.984 3.849,1.477 5.639,1.477c0.588,-0 1.208,-0.071 1.86,-0.211c0.653,-0.141 1.26,-0.39 1.823,-0.748c0.562,-0.358 1.022,-0.876 1.38,-1.554c0.359,-0.678 0.538,-1.566 0.538,-2.666c-0,-0.793 -0.116,-1.541 -0.346,-2.244c-0.23,-0.703 -0.671,-1.451 -1.323,-2.244c-0.652,-0.793 -1.592,-1.714 -2.82,-2.762c-1.611,-1.355 -2.928,-2.736 -3.951,-4.143c-1.023,-1.407 -1.771,-2.954 -2.244,-4.642c-0.473,-1.687 -0.71,-3.631 -0.71,-5.83c0,-2.507 0.39,-4.866 1.17,-7.078c0.78,-2.212 1.957,-4.162 3.53,-5.85c1.572,-1.688 3.567,-3.005 5.984,-3.951c2.417,-0.946 5.249,-1.419 8.497,-1.419c2.122,-0 4.347,0.345 6.674,1.035c2.328,0.691 4.476,1.765 6.445,3.223l-5.831,11.776c-1.56,-1.253 -3.03,-2.218 -4.411,-2.896c-1.381,-0.678 -2.583,-1.016 -3.606,-1.016c-0.588,-0 -1.157,0.096 -1.707,0.287c-0.55,0.192 -1.049,0.48 -1.496,0.863c-0.448,0.384 -0.799,0.889 -1.055,1.516c-0.256,0.626 -0.384,1.387 -0.384,2.282c0,0.639 0.115,1.298 0.345,1.976c0.231,0.677 0.691,1.425 1.381,2.244c0.691,0.818 1.739,1.764 3.146,2.838c1.637,1.254 2.935,2.59 3.894,4.009c0.959,1.419 1.649,2.986 2.071,4.699c0.422,1.714 0.633,3.632 0.633,5.754c0,2.404 -0.396,4.744 -1.189,7.02c-0.793,2.276 -1.989,4.322 -3.587,6.138c-1.598,1.816 -3.625,3.254 -6.08,4.315c-2.455,1.062 -5.358,1.592 -8.708,1.592Z" style="fill:#fff;fill-rule:nonzero;"/><path d="M195.262,56.965l9.399,-44.536l-9.015,-0l2.417,-11.547l31.263,0l-2.416,11.547l-9.13,-0l-9.398,44.536l-13.12,0Z" style="fill:#fff;fill-rule:nonzero;"/><path d="M239.66,57.732c-3.709,0 -6.771,-0.671 -9.188,-2.014c-2.417,-1.342 -4.213,-3.414 -5.389,-6.214c-1.177,-2.8 -1.765,-6.387 -1.765,-10.76c-0,-2.941 0.256,-5.933 0.767,-8.976c0.512,-3.044 1.272,-6.017 2.283,-8.919c1.01,-2.903 2.257,-5.607 3.74,-8.113c1.483,-2.507 3.196,-4.719 5.14,-6.637c1.944,-1.918 4.111,-3.414 6.502,-4.488c2.391,-1.074 4.993,-1.611 7.807,-1.611c5.651,-0 9.749,1.605 12.294,4.814c2.545,3.21 3.817,7.922 3.817,14.136c-0,2.506 -0.211,5.198 -0.633,8.075c-0.422,2.877 -1.081,5.767 -1.976,8.669c-0.895,2.903 -2.033,5.671 -3.414,8.305c-1.381,2.634 -3.037,4.981 -4.967,7.04c-1.931,2.058 -4.143,3.689 -6.637,4.89c-2.493,1.202 -5.287,1.803 -8.381,1.803Zm0.92,-11.7c1.202,0 2.321,-0.46 3.357,-1.38c1.035,-0.921 1.975,-2.155 2.819,-3.702c0.844,-1.547 1.592,-3.293 2.244,-5.236c0.652,-1.944 1.196,-3.945 1.631,-6.004c0.434,-2.059 0.767,-4.053 0.997,-5.984c0.23,-1.931 0.345,-3.651 0.345,-5.16c0,-2.403 -0.307,-4.187 -0.92,-5.351c-0.614,-1.163 -1.484,-1.745 -2.609,-1.745c-1.202,-0 -2.314,0.454 -3.337,1.362c-1.023,0.907 -1.963,2.135 -2.82,3.682c-0.857,1.547 -1.605,3.28 -2.244,5.198c-0.639,1.918 -1.183,3.906 -1.63,5.965c-0.448,2.059 -0.787,4.047 -1.017,5.965c-0.23,1.918 -0.345,3.644 -0.345,5.179c0,1.969 0.134,3.471 0.403,4.507c0.268,1.036 0.671,1.745 1.208,2.129c0.537,0.384 1.177,0.575 1.918,0.575Z" style="fill:#fff;fill-rule:nonzero;"/><path d="M262.613,56.965l11.854,-56.083l12.658,0c5.78,0 10,1.145 12.659,3.434c2.66,2.288 3.99,5.568 3.99,9.839c-0,3.197 -0.428,6.061 -1.285,8.593c-0.857,2.532 -2.078,4.699 -3.664,6.502c-1.585,1.803 -3.452,3.19 -5.6,4.162l5.984,23.553l-14.539,0l-3.759,-20.83l-0.882,0l-4.297,20.83l-13.119,0Zm19.794,-31.417l1.113,0c1.099,0 2.045,-0.288 2.838,-0.863c0.793,-0.575 1.445,-1.336 1.957,-2.283c0.511,-0.946 0.895,-1.981 1.15,-3.107c0.256,-1.125 0.384,-2.237 0.384,-3.337c0,-1.355 -0.307,-2.378 -0.921,-3.069c-0.613,-0.69 -1.56,-1.036 -2.838,-1.036l-0.844,0l-2.839,13.695Z" style="fill:#fff;fill-rule:nonzero;"/><path d="M301.178,56.965l11.853,-56.083l25.472,0l-2.379,11.317l-12.313,-0l-2.225,10.127l11.469,-0l-2.416,11.316l-11.393,0l-2.609,11.853l12.429,0l-2.455,11.47l-25.433,0Z" style="fill:#fff;fill-rule:nonzero;"/></g><g id="R"><path d="M347.183,3.42c0.633,0 1.157,0.079 1.57,0.235c0.414,0.157 0.723,0.395 0.927,0.715c0.204,0.32 0.306,0.729 0.306,1.225c-0,0.408 -0.074,0.748 -0.222,1.021c-0.148,0.273 -0.341,0.494 -0.581,0.662c-0.239,0.169 -0.494,0.3 -0.765,0.391l2.117,3.468l-1.045,-0l-1.89,-3.22l-1.604,0l-0,3.22l-0.898,-0l0,-7.717l2.085,0Zm-0.053,0.776l-1.134,0l-0,2.961l1.224,0c0.63,0 1.093,-0.128 1.391,-0.385c0.297,-0.257 0.446,-0.635 0.446,-1.135c-0,-0.524 -0.158,-0.896 -0.473,-1.114c-0.314,-0.218 -0.799,-0.327 -1.454,-0.327Z" style="fill:#fff;fill-rule:nonzero;"/><circle cx="347.455" cy="7.278" r="6.177" style="fill:none;stroke:#fff;stroke-width:0.83px;"/></g></g></svg>