<?xml version="1.0" encoding="UTF-8" standalone="no"?>
<!DOCTYPE svg PUBLIC "-//W3C//DTD SVG 1.1//EN" "http://www.w3.org/Graphics/SVG/1.1/DTD/svg11.dtd">
<svg width="100%" height="100%" viewBox="0 0 154 24" version="1.1" xmlns="http://www.w3.org/2000/svg" xmlns:xlink="http://www.w3.org/1999/xlink" xml:space="preserve" xmlns:serif="http://www.serif.com/" style="fill-rule:evenodd;clip-rule:evenodd;stroke-linejoin:round;stroke-miterlimit:2;">
    <g transform="matrix(1,0,0,1,-1998.14,-363.895)">
        <g id="SHOE-STORE-V2" serif:id="SHOE STORE V2" transform="matrix(0.412631,0,0,0.412631,1203.36,137.059)">
            <g transform="matrix(0.447666,0,0,0.447666,1479.68,185.491)">
                <path d="M1063.29,905.181C1063.29,912.722 1061.78,919.377 1058.75,925.147C1055.72,930.917 1051.45,935.43 1045.94,938.686C1040.43,941.942 1033.93,943.57 1026.44,943.57C1022.96,943.57 1019.59,943.356 1016.33,942.928C1013.08,942.499 1009.88,941.785 1006.74,940.785C1003.59,939.786 1000.45,938.457 997.31,936.801L997.31,912.208C1001.88,915.178 1006.62,917.435 1011.53,918.977C1016.45,920.52 1020.99,921.291 1025.16,921.291C1028.24,921.291 1030.8,920.691 1032.83,919.491C1034.86,918.292 1036.37,916.664 1037.37,914.607C1038.37,912.55 1038.87,910.237 1038.87,907.666C1038.87,904.924 1038.44,902.51 1037.58,900.425C1036.73,898.34 1035.09,896.255 1032.66,894.17C1030.23,892.085 1026.67,889.671 1021.99,886.929C1018.33,884.758 1015.03,882.53 1012.09,880.245C1009.15,877.96 1006.64,875.433 1004.55,872.662C1002.47,869.891 1000.88,866.678 999.795,863.022C998.709,859.366 998.167,855.053 998.167,850.083C998.109,842.999 999.495,836.801 1002.32,831.488C1005.15,826.175 1009.24,822.048 1014.58,819.106C1019.92,816.164 1026.33,814.721 1033.81,814.778C1038.9,814.778 1043.88,815.464 1048.77,816.835C1053.65,818.206 1058.35,820.148 1062.86,822.662L1056.26,843.913C1052.21,841.457 1048.38,839.643 1044.78,838.472C1041.18,837.301 1037.81,836.715 1034.67,836.715C1031.93,836.715 1029.63,837.243 1027.77,838.3C1025.92,839.357 1024.52,840.8 1023.57,842.628C1022.63,844.456 1022.16,846.541 1022.16,848.883C1022.16,851.854 1022.62,854.367 1023.53,856.424C1024.44,858.48 1026.17,860.494 1028.71,862.465C1031.26,864.436 1034.93,866.792 1039.73,869.534C1044.92,872.562 1049.27,875.775 1052.75,879.174C1056.24,882.573 1058.86,886.372 1060.63,890.571C1062.4,894.77 1063.29,899.64 1063.29,905.181Z" style="fill-rule:nonzero;"/>
                <path d="M1159.97,941.856L1135.89,941.856L1135.89,887.101L1104.88,887.101L1104.88,941.856L1080.8,941.856L1080.8,816.578L1104.88,816.578L1104.88,866.192L1135.89,866.192L1135.89,816.578L1159.97,816.578L1159.97,941.856Z" style="fill-rule:nonzero;"/>
                <path d="M1266.98,879.046C1266.98,888.986 1266.07,897.94 1264.24,905.91C1262.41,913.879 1259.67,920.662 1256.02,926.261C1252.36,931.859 1247.75,936.144 1242.18,939.114C1236.61,942.085 1230.08,943.57 1222.6,943.57C1215.06,943.57 1208.49,942.071 1202.89,939.071C1197.29,936.072 1192.66,931.745 1189.01,926.089C1185.35,920.434 1182.61,913.636 1180.78,905.695C1178.95,897.755 1178.04,888.814 1178.04,878.874C1178.04,864.821 1179.72,853.025 1183.09,843.484C1186.46,833.944 1191.46,826.746 1198.09,821.891C1204.72,817.035 1212.88,814.607 1222.6,814.607C1232.71,814.607 1241.03,817.206 1247.58,822.405C1254.12,827.603 1258.99,835.015 1262.18,844.641C1265.38,854.267 1266.98,865.735 1266.98,879.046ZM1202.97,879.046C1202.97,888.643 1203.72,896.655 1205.2,903.082C1206.69,909.508 1208.89,914.336 1211.8,917.563C1214.71,920.791 1218.31,922.405 1222.6,922.405C1226.94,922.405 1230.55,920.834 1233.44,917.692C1236.32,914.55 1238.49,909.78 1239.95,903.382C1241.4,896.983 1242.13,888.872 1242.13,879.046C1242.13,864.364 1240.51,853.439 1237.25,846.269C1233.99,839.1 1229.11,835.515 1222.6,835.515C1218.31,835.515 1214.71,837.143 1211.8,840.4C1208.89,843.656 1206.69,848.512 1205.2,854.967C1203.72,861.422 1202.97,869.449 1202.97,879.046Z" style="fill-rule:nonzero;"/>
                <path d="M1339.59,941.856L1283.29,941.856L1283.29,816.578L1339.59,816.578L1339.59,837.058L1307.37,837.058L1307.37,866.535L1337.36,866.535L1337.36,887.101L1307.37,887.101L1307.37,920.948L1339.59,920.948L1339.59,941.856Z" style="fill-rule:nonzero;"/>
                <path d="M1438.11,905.181C1438.11,912.722 1436.6,919.377 1433.57,925.147C1430.54,930.917 1426.27,935.43 1420.76,938.686C1415.25,941.942 1408.75,943.57 1401.27,943.57C1397.78,943.57 1394.41,943.356 1391.15,942.928C1387.9,942.499 1384.7,941.785 1381.56,940.785C1378.41,939.786 1375.27,938.457 1372.13,936.801L1372.13,912.208C1376.7,915.178 1381.44,917.435 1386.36,918.977C1391.27,920.52 1395.81,921.291 1399.98,921.291C1403.07,921.291 1405.62,920.691 1407.65,919.491C1409.68,918.292 1411.19,916.664 1412.19,914.607C1413.19,912.55 1413.69,910.237 1413.69,907.666C1413.69,904.924 1413.26,902.51 1412.4,900.425C1411.55,898.34 1409.9,896.255 1407.48,894.17C1405.05,892.085 1401.49,889.671 1396.81,886.929C1393.15,884.758 1389.85,882.53 1386.91,880.245C1383.97,877.96 1381.46,875.433 1379.37,872.662C1377.29,869.891 1375.7,866.678 1374.62,863.022C1373.53,859.366 1372.99,855.053 1372.99,850.083C1372.93,842.999 1374.32,836.801 1377.14,831.488C1379.97,826.175 1384.06,822.048 1389.4,819.106C1394.74,816.164 1401.15,814.721 1408.63,814.778C1413.72,814.778 1418.7,815.464 1423.59,816.835C1428.47,818.206 1433.17,820.148 1437.68,822.662L1431.09,843.913C1427.03,841.457 1423.2,839.643 1419.6,838.472C1416,837.301 1412.63,836.715 1409.49,836.715C1406.75,836.715 1404.45,837.243 1402.59,838.3C1400.74,839.357 1399.34,840.8 1398.39,842.628C1397.45,844.456 1396.98,846.541 1396.98,848.883C1396.98,851.854 1397.44,854.367 1398.35,856.424C1399.27,858.48 1400.99,860.494 1403.54,862.465C1406.08,864.436 1409.75,866.792 1414.55,869.534C1419.75,872.562 1424.09,875.775 1427.57,879.174C1431.06,882.573 1433.68,886.372 1435.45,890.571C1437.23,894.77 1438.11,899.64 1438.11,905.181Z" style="fill-rule:nonzero;"/>
                <path d="M1500.94,941.856L1477.2,941.856L1477.2,837.401L1453.9,837.401L1453.9,816.578L1524.08,816.578L1524.08,837.401L1500.94,837.401L1500.94,941.856Z" style="fill-rule:nonzero;"/>
                <path d="M1622.52,879.046C1622.52,888.986 1621.6,897.94 1619.78,905.91C1617.95,913.879 1615.2,920.662 1611.55,926.261C1607.89,931.859 1603.28,936.144 1597.71,939.114C1592.14,942.085 1585.61,943.57 1578.13,943.57C1570.59,943.57 1564.02,942.071 1558.42,939.071C1552.82,936.072 1548.2,931.745 1544.54,926.089C1540.88,920.434 1538.14,913.636 1536.31,905.695C1534.49,897.755 1533.57,888.814 1533.57,878.874C1533.57,864.821 1535.26,853.025 1538.63,843.484C1542,833.944 1547,826.746 1553.62,821.891C1560.25,817.035 1568.42,814.607 1578.13,814.607C1588.24,814.607 1596.57,817.206 1603.11,822.405C1609.65,827.603 1614.52,835.015 1617.72,844.641C1620.92,854.267 1622.52,865.735 1622.52,879.046ZM1558.51,879.046C1558.51,888.643 1559.25,896.655 1560.74,903.082C1562.22,909.508 1564.42,914.336 1567.33,917.563C1570.25,920.791 1573.85,922.405 1578.13,922.405C1582.47,922.405 1586.09,920.834 1588.97,917.692C1591.86,914.55 1594.03,909.78 1595.48,903.382C1596.94,896.983 1597.67,888.872 1597.67,879.046C1597.67,864.364 1596.04,853.439 1592.78,846.269C1589.53,839.1 1584.64,835.515 1578.13,835.515C1573.85,835.515 1570.25,837.143 1567.33,840.4C1564.42,843.656 1562.22,848.512 1560.74,854.967C1559.25,861.422 1558.51,869.449 1558.51,879.046Z" style="fill-rule:nonzero;"/>
                <path d="M1669.72,816.578C1678.97,816.578 1686.65,817.92 1692.77,820.605C1698.88,823.29 1703.43,827.318 1706.43,832.688C1709.43,838.057 1710.93,844.798 1710.93,852.91C1710.93,858.052 1710.31,862.722 1709.05,866.921C1707.79,871.119 1705.83,874.861 1703.18,878.146C1700.52,881.431 1697.14,884.301 1693.02,886.758L1718.82,941.856L1692.34,941.856L1671.86,892.756L1664.66,892.756L1664.66,941.856L1640.58,941.856L1640.58,816.578L1669.72,816.578ZM1669.55,836.886L1664.66,836.886L1664.66,873.733L1670.06,873.733C1675.43,873.733 1679.5,872.105 1682.27,868.849C1685.04,865.592 1686.43,860.68 1686.43,854.11C1686.43,848.226 1685.04,843.884 1682.27,841.085C1679.5,838.286 1675.26,836.886 1669.55,836.886Z" style="fill-rule:nonzero;"/>
                <path d="M1787.82,941.856L1731.52,941.856L1731.52,816.578L1787.82,816.578L1787.82,837.058L1755.6,837.058L1755.6,866.535L1785.59,866.535L1785.59,887.101L1755.6,887.101L1755.6,920.948L1787.82,920.948L1787.82,941.856Z" style="fill-rule:nonzero;"/>
            </g>
            <g>
                <g transform="matrix(0.0615935,0,0,0.0615935,2212.95,539.102)">
                    <g id="R">
                        <path d="M1275.92,217.239C1286.2,217.239 1294.7,218.51 1301.41,221.052C1308.13,223.594 1313.14,227.465 1316.45,232.663C1319.77,237.862 1321.42,244.488 1321.42,252.543C1321.42,259.17 1320.22,264.697 1317.83,269.124C1315.43,273.551 1312.28,277.136 1308.4,279.878C1304.52,282.62 1300.37,284.734 1295.97,286.219L1330.34,342.517L1313.37,342.517L1282.69,290.247L1256.64,290.247L1256.64,342.517L1242.08,342.517L1242.08,217.239L1275.92,217.239ZM1275.07,229.835L1256.64,229.835L1256.64,277.907L1276.52,277.907C1286.75,277.907 1294.28,275.822 1299.1,271.652C1303.93,267.482 1306.34,261.341 1306.34,253.229C1306.34,244.717 1303.79,238.69 1298.67,235.148C1293.56,231.606 1285.69,229.835 1275.07,229.835Z" style="fill-rule:nonzero;"/>
                    </g>
                </g>
                <g transform="matrix(0.70053,0,0,0.70053,682.555,167.872)">
                    <path d="M2297.22,545.102C2302.42,545.102 2306.64,549.324 2306.64,554.525C2306.64,559.726 2302.42,563.948 2297.22,563.948C2292.02,563.948 2287.79,559.726 2287.79,554.525C2287.79,549.324 2292.02,545.102 2297.22,545.102ZM2297.22,546.391C2301.71,546.391 2305.35,550.036 2305.35,554.525C2305.35,559.015 2301.71,562.659 2297.22,562.659C2292.73,562.659 2289.08,559.015 2289.08,554.525C2289.08,550.036 2292.73,546.391 2297.22,546.391Z"/>
                </g>
            </g>
        </g>
    </g>
</svg>
