<?xml version="1.0" encoding="UTF-8" standalone="no"?>
<!DOCTYPE svg PUBLIC "-//W3C//DTD SVG 1.1//EN" "http://www.w3.org/Graphics/SVG/1.1/DTD/svg11.dtd">
<svg width="100%" height="100%" viewBox="0 0 145 24" version="1.1" xmlns="http://www.w3.org/2000/svg" xmlns:xlink="http://www.w3.org/1999/xlink" xml:space="preserve" xmlns:serif="http://www.serif.com/" style="fill-rule:evenodd;clip-rule:evenodd;stroke-linejoin:round;stroke-miterlimit:2;">
    <g transform="matrix(1,0,0,1,-1890.34,-401.351)">
        <g id="SHOE-STORE-V2" serif:id="SHOE STORE V2" transform="matrix(0.412631,0,0,0.412631,1086.51,174.515)">
            <g transform="matrix(0.447666,0,0,0.447666,1501.59,185.491)">
                <path d="M1063.29,905.181C1063.29,912.722 1061.78,919.377 1058.75,925.147C1055.72,930.917 1051.45,935.43 1045.94,938.686C1040.43,941.942 1033.93,943.57 1026.44,943.57C1022.96,943.57 1019.59,943.356 1016.33,942.928C1013.08,942.499 1009.88,941.785 1006.74,940.785C1003.59,939.786 1000.45,938.457 997.31,936.801L997.31,912.208C1001.88,915.178 1006.62,917.435 1011.53,918.977C1016.45,920.52 1020.99,921.291 1025.16,921.291C1028.24,921.291 1030.8,920.691 1032.83,919.491C1034.86,918.292 1036.37,916.664 1037.37,914.607C1038.37,912.55 1038.87,910.237 1038.87,907.666C1038.87,904.924 1038.44,902.51 1037.58,900.425C1036.73,898.34 1035.09,896.255 1032.66,894.17C1030.23,892.085 1026.67,889.671 1021.99,886.929C1018.33,884.758 1015.03,882.53 1012.09,880.245C1009.15,877.96 1006.64,875.433 1004.55,872.662C1002.47,869.891 1000.88,866.678 999.795,863.022C998.709,859.366 998.167,855.053 998.167,850.083C998.109,842.999 999.495,836.801 1002.32,831.488C1005.15,826.175 1009.24,822.048 1014.58,819.106C1019.92,816.164 1026.33,814.721 1033.81,814.778C1038.9,814.778 1043.88,815.464 1048.77,816.835C1053.65,818.206 1058.35,820.148 1062.86,822.662L1056.26,843.913C1052.21,841.457 1048.38,839.643 1044.78,838.472C1041.18,837.301 1037.81,836.715 1034.67,836.715C1031.93,836.715 1029.63,837.243 1027.77,838.3C1025.92,839.357 1024.52,840.8 1023.57,842.628C1022.63,844.456 1022.16,846.541 1022.16,848.883C1022.16,851.854 1022.62,854.367 1023.53,856.424C1024.44,858.48 1026.17,860.494 1028.71,862.465C1031.26,864.436 1034.93,866.792 1039.73,869.534C1044.92,872.562 1049.27,875.775 1052.75,879.174C1056.24,882.573 1058.86,886.372 1060.63,890.571C1062.4,894.77 1063.29,899.64 1063.29,905.181Z" style="fill-rule:nonzero;"/>
                <path d="M1152.95,941.856L1128.88,941.856L1128.88,887.101L1097.86,887.101L1097.86,941.856L1073.78,941.856L1073.78,816.578L1097.86,816.578L1097.86,866.192L1128.88,866.192L1128.88,816.578L1152.95,816.578L1152.95,941.856Z" style="fill-rule:nonzero;"/>
                <path d="M1254.7,879.046C1254.7,888.986 1253.79,897.94 1251.96,905.91C1250.13,913.879 1247.39,920.662 1243.73,926.261C1240.08,931.859 1235.46,936.144 1229.89,939.114C1224.32,942.085 1217.8,943.57 1210.31,943.57C1202.77,943.57 1196.2,942.071 1190.6,939.071C1185.01,936.072 1180.38,931.745 1176.72,926.089C1173.07,920.434 1170.32,913.636 1168.5,905.695C1166.67,897.755 1165.75,888.814 1165.75,878.874C1165.75,864.821 1167.44,853.025 1170.81,843.484C1174.18,833.944 1179.18,826.746 1185.81,821.891C1192.43,817.035 1200.6,814.607 1210.31,814.607C1220.42,814.607 1228.75,817.206 1235.29,822.405C1241.83,827.603 1246.7,835.015 1249.9,844.641C1253.1,854.267 1254.7,865.735 1254.7,879.046ZM1190.69,879.046C1190.69,888.643 1191.43,896.655 1192.92,903.082C1194.4,909.508 1196.6,914.336 1199.52,917.563C1202.43,920.791 1206.03,922.405 1210.31,922.405C1214.65,922.405 1218.27,920.834 1221.15,917.692C1224.04,914.55 1226.21,909.78 1227.66,903.382C1229.12,896.983 1229.85,888.872 1229.85,879.046C1229.85,864.364 1228.22,853.439 1224.96,846.269C1221.71,839.1 1216.82,835.515 1210.31,835.515C1206.03,835.515 1202.43,837.143 1199.52,840.4C1196.6,843.656 1194.4,848.512 1192.92,854.967C1191.43,861.422 1190.69,869.449 1190.69,879.046Z" style="fill-rule:nonzero;"/>
                <path d="M1323.8,941.856L1267.5,941.856L1267.5,816.578L1323.8,816.578L1323.8,837.058L1291.58,837.058L1291.58,866.535L1321.57,866.535L1321.57,887.101L1291.58,887.101L1291.58,920.948L1323.8,920.948L1323.8,941.856Z" style="fill-rule:nonzero;"/>
                <path d="M1422.32,905.181C1422.32,912.722 1420.8,919.377 1417.78,925.147C1414.75,930.917 1410.48,935.43 1404.96,938.686C1399.45,941.942 1392.95,943.57 1385.47,943.57C1381.99,943.57 1378.62,943.356 1375.36,942.928C1372.1,942.499 1368.9,941.785 1365.76,940.785C1362.62,939.786 1359.48,938.457 1356.34,936.801L1356.34,912.208C1360.91,915.178 1365.65,917.435 1370.56,918.977C1375.47,920.52 1380.02,921.291 1384.18,921.291C1387.27,921.291 1389.83,920.691 1391.86,919.491C1393.88,918.292 1395.4,916.664 1396.4,914.607C1397.4,912.55 1397.9,910.237 1397.9,907.666C1397.9,904.924 1397.47,902.51 1396.61,900.425C1395.75,898.34 1394.11,896.255 1391.68,894.17C1389.26,892.085 1385.7,889.671 1381.02,886.929C1377.36,884.758 1374.06,882.53 1371.12,880.245C1368.18,877.96 1365.66,875.433 1363.58,872.662C1361.49,869.891 1359.91,866.678 1358.82,863.022C1357.74,859.366 1357.19,855.053 1357.19,850.083C1357.14,842.999 1358.52,836.801 1361.35,831.488C1364.18,826.175 1368.26,822.048 1373.6,819.106C1378.94,816.164 1385.36,814.721 1392.84,814.778C1397.92,814.778 1402.91,815.464 1407.79,816.835C1412.68,818.206 1417.38,820.148 1421.89,822.662L1415.29,843.913C1411.24,841.457 1407.41,839.643 1403.81,838.472C1400.21,837.301 1396.84,836.715 1393.7,836.715C1390.95,836.715 1388.66,837.243 1386.8,838.3C1384.94,839.357 1383.54,840.8 1382.6,842.628C1381.66,844.456 1381.19,846.541 1381.19,848.883C1381.19,851.854 1381.64,854.367 1382.56,856.424C1383.47,858.48 1385.2,860.494 1387.74,862.465C1390.28,864.436 1393.95,866.792 1398.75,869.534C1403.95,872.562 1408.29,875.775 1411.78,879.174C1415.26,882.573 1417.89,886.372 1419.66,890.571C1421.43,894.77 1422.32,899.64 1422.32,905.181Z" style="fill-rule:nonzero;"/>
                <path d="M1471.11,941.856L1447.37,941.856L1447.37,837.401L1424.06,837.401L1424.06,816.578L1494.24,816.578L1494.24,837.401L1471.11,837.401L1471.11,941.856Z" style="fill-rule:nonzero;"/>
                <path d="M1587.42,879.046C1587.42,888.986 1586.51,897.94 1584.68,905.91C1582.85,913.879 1580.11,920.662 1576.45,926.261C1572.8,931.859 1568.18,936.144 1562.61,939.114C1557.04,942.085 1550.52,943.57 1543.03,943.57C1535.49,943.57 1528.92,942.071 1523.32,939.071C1517.73,936.072 1513.1,931.745 1509.44,926.089C1505.79,920.434 1503.04,913.636 1501.21,905.695C1499.39,897.755 1498.47,888.814 1498.47,878.874C1498.47,864.821 1500.16,853.025 1503.53,843.484C1506.9,833.944 1511.9,826.746 1518.52,821.891C1525.15,817.035 1533.32,814.607 1543.03,814.607C1553.14,814.607 1561.47,817.206 1568.01,822.405C1574.55,827.603 1579.42,835.015 1582.62,844.641C1585.82,854.267 1587.42,865.735 1587.42,879.046ZM1523.41,879.046C1523.41,888.643 1524.15,896.655 1525.64,903.082C1527.12,909.508 1529.32,914.336 1532.24,917.563C1535.15,920.791 1538.75,922.405 1543.03,922.405C1547.37,922.405 1550.99,920.834 1553.87,917.692C1556.76,914.55 1558.93,909.78 1560.38,903.382C1561.84,896.983 1562.57,888.872 1562.57,879.046C1562.57,864.364 1560.94,853.439 1557.68,846.269C1554.43,839.1 1549.54,835.515 1543.03,835.515C1538.75,835.515 1535.15,837.143 1532.24,840.4C1529.32,843.656 1527.12,848.512 1525.64,854.967C1524.15,861.422 1523.41,869.449 1523.41,879.046Z" style="fill-rule:nonzero;"/>
                <path d="M1629.35,816.578C1638.61,816.578 1646.29,817.92 1652.4,820.605C1658.52,823.29 1663.07,827.318 1666.07,832.688C1669.07,838.057 1670.57,844.798 1670.57,852.91C1670.57,858.052 1669.94,862.722 1668.68,866.921C1667.43,871.119 1665.47,874.861 1662.82,878.146C1660.16,881.431 1656.77,884.301 1652.66,886.758L1678.45,941.856L1651.98,941.856L1631.5,892.756L1624.3,892.756L1624.3,941.856L1600.22,941.856L1600.22,816.578L1629.35,816.578ZM1629.18,836.886L1624.3,836.886L1624.3,873.733L1629.7,873.733C1635.07,873.733 1639.14,872.105 1641.91,868.849C1644.68,865.592 1646.06,860.68 1646.06,854.11C1646.06,848.226 1644.68,843.884 1641.91,841.085C1639.14,838.286 1634.89,836.886 1629.18,836.886Z" style="fill-rule:nonzero;"/>
                <path d="M1740.44,941.856L1684.14,941.856L1684.14,816.578L1740.44,816.578L1740.44,837.058L1708.22,837.058L1708.22,866.535L1738.21,866.535L1738.21,887.101L1708.22,887.101L1708.22,920.948L1740.44,920.948L1740.44,941.856Z" style="fill-rule:nonzero;"/>
            </g>
            <g>
                <g transform="matrix(0.0615935,0,0,0.0615935,2212.95,539.102)">
                    <g id="R">
                        <path d="M1275.92,217.239C1286.2,217.239 1294.7,218.51 1301.41,221.052C1308.13,223.594 1313.14,227.465 1316.45,232.663C1319.77,237.862 1321.42,244.488 1321.42,252.543C1321.42,259.17 1320.22,264.697 1317.83,269.124C1315.43,273.551 1312.28,277.136 1308.4,279.878C1304.52,282.62 1300.37,284.734 1295.97,286.219L1330.34,342.517L1313.37,342.517L1282.69,290.247L1256.64,290.247L1256.64,342.517L1242.08,342.517L1242.08,217.239L1275.92,217.239ZM1275.07,229.835L1256.64,229.835L1256.64,277.907L1276.52,277.907C1286.75,277.907 1294.28,275.822 1299.1,271.652C1303.93,267.482 1306.34,261.341 1306.34,253.229C1306.34,244.717 1303.79,238.69 1298.67,235.148C1293.56,231.606 1285.69,229.835 1275.07,229.835Z" style="fill-rule:nonzero;"/>
                    </g>
                </g>
                <g transform="matrix(0.70053,0,0,0.70053,682.555,167.872)">
                    <path d="M2297.22,545.102C2302.42,545.102 2306.64,549.324 2306.64,554.525C2306.64,559.726 2302.42,563.948 2297.22,563.948C2292.02,563.948 2287.79,559.726 2287.79,554.525C2287.79,549.324 2292.02,545.102 2297.22,545.102ZM2297.22,546.391C2301.71,546.391 2305.35,550.036 2305.35,554.525C2305.35,559.015 2301.71,562.659 2297.22,562.659C2292.73,562.659 2289.08,559.015 2289.08,554.525C2289.08,550.036 2292.73,546.391 2297.22,546.391Z"/>
                </g>
            </g>
        </g>
    </g>
</svg>
